#tb 0: 1/25
0,          0,          0,        1,   149760, 0x82ff0cca
0,          1,          1,        1,   149760, 0xcd05ba17
0,          2,          2,        1,   149760, 0x33a5b924
0,          3,          3,        1,   149760, 0xc0a8d82f
0,          4,          4,        1,   149760, 0xa18c8ce6
0,          5,          5,        1,   149760, 0x4d3c4902
0,          6,          6,        1,   149760, 0xf118cb2a
0,          7,          7,        1,   149760, 0xb37643c0
0,          8,          8,        1,   149760, 0x0d6f8a70
0,          9,          9,        1,   149760, 0xeaebd0f0
0,         10,         10,        1,   149760, 0x81cce277
0,         11,         11,        1,   149760, 0x85f216cc
0,         12,         12,        1,   149760, 0x799cc7c7
0,         13,         13,        1,   149760, 0x575f76da
0,         14,         14,        1,   149760, 0x79e10395
0,         15,         15,        1,   149760, 0x80f62423
0,         16,         16,        1,   149760, 0x13657087
0,         17,         17,        1,   149760, 0xcd147ae1
0,         18,         18,        1,   149760, 0xcee71159
0,         19,         19,        1,   149760, 0x6fa7b8d5
0,         20,         20,        1,   149760, 0xd90bd038
0,         21,         21,        1,   149760, 0x13eead73
0,         22,         22,        1,   149760, 0xe2eddfc8
0,         23,         23,        1,   149760, 0x1f07a4f6
0,         24,         24,        1,   149760, 0x90b25f59
0,         25,         25,        1,   149760, 0xd0dd86ba
0,         26,         26,        1,   149760, 0x3008066c
0,         27,         27,        1,   149760, 0x74ec54dd
0,         28,         28,        1,   149760, 0xa423046c
0,         29,         29,        1,   149760, 0x8a410bca
0,         30,         30,        1,   149760, 0x55337573
0,         31,         31,        1,   149760, 0x55d3623c
0,         32,         32,        1,   149760, 0x699d234b
0,         33,         33,        1,   149760, 0xbcd029b6
0,         34,         34,        1,   149760, 0xa56e6600
0,         35,         35,        1,   149760, 0x1dfc4a28
0,         36,         36,        1,   149760, 0x9a72d671
0,         37,         37,        1,   149760, 0xc01812ae
0,         38,         38,        1,   149760, 0x8ef428c2
0,         39,         39,        1,   149760, 0x6e79de92
0,         40,         40,        1,   149760, 0xf315ba7c
0,         41,         41,        1,   149760, 0xa678caff
0,         42,         42,        1,   149760, 0xbd2049c0
0,         43,         43,        1,   149760, 0x649323ea
0,         44,         44,        1,   149760, 0x686eb3a4
0,         45,         45,        1,   149760, 0x89725136
0,         46,         46,        1,   149760, 0xc4db7e6f
0,         47,         47,        1,   149760, 0xf6f0d823
0,         48,         48,        1,   149760, 0x44b3a07a
0,         49,         49,        1,   149760, 0xf23c221d
0,         50,         50,        1,   149760, 0x858f11ef
0,         51,         51,        1,   149760, 0xcd5311c4
0,         52,         52,        1,   149760, 0x72c9297d
0,         53,         53,        1,   149760, 0xf6acd772
0,         54,         54,        1,   149760, 0x8c0f91ed
0,         55,         55,        1,   149760, 0x7ef6f2be
0,         56,         56,        1,   149760, 0x1237a677
0,         57,         57,        1,   149760, 0x66e461f9
0,         58,         58,        1,   149760, 0x3e06e1b3
0,         59,         59,        1,   149760, 0xa6f6065c
0,         60,         60,        1,   149760, 0x16e38cc0
0,         61,         61,        1,   149760, 0x05762de1
0,         62,         62,        1,   149760, 0xbda617c5
0,         63,         63,        1,   149760, 0x75b904a9
0,         64,         64,        1,   149760, 0x2f8bf179
0,         65,         65,        1,   149760, 0x9be6a533
0,         66,         66,        1,   149760, 0xf4eb99e8
0,         67,         67,        1,   149760, 0xf3a68b9a
0,         68,         68,        1,   149760, 0x34b86f19
0,         69,         69,        1,   149760, 0x6a71cc04
0,         70,         70,        1,   149760, 0xe206a202
0,         71,         71,        1,   149760, 0xdfa8dea6
0,         72,         72,        1,   149760, 0x8ef7fb73
0,         73,         73,        1,   149760, 0x67a8de32
0,         74,         74,        1,   149760, 0xc8c16870
0,         75,         75,        1,   149760, 0xf5e5d04d
0,         76,         76,        1,   149760, 0x79d0cc8d
0,         77,         77,        1,   149760, 0xcd80a22b
0,         78,         78,        1,   149760, 0x12dce452
0,         79,         79,        1,   149760, 0x0586aa3d
0,         80,         80,        1,   149760, 0x5a4d0c1e
0,         81,         81,        1,   149760, 0x25dbe94e
0,         82,         82,        1,   149760, 0x3236bbe8
0,         83,         83,        1,   149760, 0x3b4bc068
0,         84,         84,        1,   149760, 0x3f32c299
0,         85,         85,        1,   149760, 0x5b0738e5
0,         86,         86,        1,   149760, 0x0c1d0c80
0,         87,         87,        1,   149760, 0x76ace6f5
0,         88,         88,        1,   149760, 0xc738ff39
0,         89,         89,        1,   149760, 0x0f078335
0,         90,         90,        1,   149760, 0x0e941631
0,         91,         91,        1,   149760, 0x284ee7d6
0,         92,         92,        1,   149760, 0xce9b49b8
0,         93,         93,        1,   149760, 0x7c132570
0,         94,         94,        1,   149760, 0xa983dc5e
0,         95,         95,        1,   149760, 0x994e4d69
0,         96,         96,        1,   149760, 0xb8f599ed
0,         97,         97,        1,   149760, 0xee81b454
0,         98,         98,        1,   149760, 0xf27bdeee
0,         99,         99,        1,   149760, 0xc7628895
0,        100,        100,        1,   149760, 0x003521d1
0,        101,        101,        1,   149760, 0x7ed9b167
0,        102,        102,        1,   149760, 0x47598b95
0,        103,        103,        1,   149760, 0x879b347e
0,        104,        104,        1,   149760, 0x55f8f8c1
0,        105,        105,        1,   149760, 0xdddc5dda
0,        106,        106,        1,   149760, 0xc531c9a1
0,        107,        107,        1,   149760, 0x28ef0e7e
0,        108,        108,        1,   149760, 0x4c090cbd
0,        109,        109,        1,   149760, 0x5818f270
0,        110,        110,        1,   149760, 0x89ea1f0e
0,        111,        111,        1,   149760, 0x263925ef
0,        112,        112,        1,   149760, 0x4e7d45b8
0,        113,        113,        1,   149760, 0xa98dbf77
0,        114,        114,        1,   149760, 0xaa0239b3
0,        115,        115,        1,   149760, 0x4eaa2226
0,        116,        116,        1,   149760, 0x9927c7f9
0,        117,        117,        1,   149760, 0x17f09e34
0,        118,        118,        1,   149760, 0x45cc73e9
0,        119,        119,        1,   149760, 0x21836e14
0,        120,        120,        1,   149760, 0x14c38cf6
0,        121,        121,        1,   149760, 0x18ee35ee
0,        122,        122,        1,   149760, 0x4f55f781
0,        123,        123,        1,   149760, 0x85556339
0,        124,        124,        1,   149760, 0xc41e3261
0,        125,        125,        1,   149760, 0xed34ba27
0,        126,        126,        1,   149760, 0x91e7841c
0,        127,        127,        1,   149760, 0x1605bd75
0,        128,        128,        1,   149760, 0xb5af2fbc
0,        129,        129,        1,   149760, 0x9024b2d8
0,        130,        130,        1,   149760, 0xda8d3c03
0,        131,        131,        1,   149760, 0xc23a9686
0,        132,        132,        1,   149760, 0xf9c8686b
0,        133,        133,        1,   149760, 0xec09b569
0,        134,        134,        1,   149760, 0x398df9bb
0,        135,        135,        1,   149760, 0x716c2934
0,        136,        136,        1,   149760, 0x0a6ea078
0,        137,        137,        1,   149760, 0x777739fe
0,        138,        138,        1,   149760, 0x80417304
0,        139,        139,        1,   149760, 0xe0a5c378
0,        140,        140,        1,   149760, 0x9565a659
0,        141,        141,        1,   149760, 0xdf6f1938
0,        142,        142,        1,   149760, 0xe60d5639
0,        143,        143,        1,   149760, 0xa89fa739
0,        144,        144,        1,   149760, 0xd1529b40
0,        145,        145,        1,   149760, 0x48a7d440
0,        146,        146,        1,   149760, 0x5946afbb
0,        147,        147,        1,   149760, 0x2cad2855
0,        148,        148,        1,   149760, 0x7ac1d993
0,        149,        149,        1,   149760, 0x0841a016
0,        150,        150,        1,   149760, 0x35ea4bd2
0,        151,        151,        1,   149760, 0x5371effa
0,        152,        152,        1,   149760, 0xd6445a37
0,        153,        153,        1,   149760, 0x782ea184
0,        154,        154,        1,   149760, 0x919c2013
0,        155,        155,        1,   149760, 0x0ea79614
0,        156,        156,        1,   149760, 0x1ac0e835
0,        157,        157,        1,   149760, 0x32a36ada
0,        158,        158,        1,   149760, 0x6b0ad17c
0,        159,        159,        1,   149760, 0xcd442d19
0,        160,        160,        1,   149760, 0x0dd1df50
0,        161,        161,        1,   149760, 0xe26b248f
0,        162,        162,        1,   149760, 0x490348bb
0,        163,        163,        1,   149760, 0x638b547e
0,        164,        164,        1,   149760, 0xb2cbe2ca
0,        165,        165,        1,   149760, 0xc6cfaa86
0,        166,        166,        1,   149760, 0xe2317842
0,        167,        167,        1,   149760, 0xe6e7cd9b
0,        168,        168,        1,   149760, 0x55bf48cb
0,        169,        169,        1,   149760, 0xefee6ea0
0,        170,        170,        1,   149760, 0x2bb127fa
0,        171,        171,        1,   149760, 0xebbf0725
0,        172,        172,        1,   149760, 0xb40718a1
0,        173,        173,        1,   149760, 0x33c8e7da
0,        174,        174,        1,   149760, 0xfeea8d03
0,        175,        175,        1,   149760, 0x52f47fa9
0,        176,        176,        1,   149760, 0xb08fa2f6
0,        177,        177,        1,   149760, 0xc9adcd96
0,        178,        178,        1,   149760, 0xb8981cc2
0,        179,        179,        1,   149760, 0x547b1eaa
0,        180,        180,        1,   149760, 0x10733813
0,        181,        181,        1,   149760, 0x14edfa3d
0,        182,        182,        1,   149760, 0x28ae8eb3
0,        183,        183,        1,   149760, 0x9b94a69c
0,        184,        184,        1,   149760, 0x42f67a2a
0,        185,        185,        1,   149760, 0x1ead65e6
0,        186,        186,        1,   149760, 0x30b99840
0,        187,        187,        1,   149760, 0xafdebbda
0,        188,        188,        1,   149760, 0xc31cda7f
0,        189,        189,        1,   149760, 0xe7afdfa8
0,        190,        190,        1,   149760, 0xc8358146
0,        191,        191,        1,   149760, 0xb8ea3a3b
0,        192,        192,        1,   149760, 0xebbb2c0e
0,        193,        193,        1,   149760, 0xe911c057
0,        194,        194,        1,   149760, 0x843f3082
0,        195,        195,        1,   149760, 0xd18f6dcb
0,        196,        196,        1,   149760, 0xd0f67de3
0,        197,        197,        1,   149760, 0xa7077645
0,        198,        198,        1,   149760, 0xb7432bef
0,        199,        199,        1,   149760, 0x9e3284ee
0,        200,        200,        1,   149760, 0x931ec601
0,        201,        201,        1,   149760, 0xd0f92a35
0,        202,        202,        1,   149760, 0x2141c549
0,        203,        203,        1,   149760, 0x46abf101
0,        204,        204,        1,   149760, 0x92069ea7
0,        205,        205,        1,   149760, 0xbf0dd536
0,        206,        206,        1,   149760, 0xc0c34245
0,        207,        207,        1,   149760, 0xd9f60e8b
0,        208,        208,        1,   149760, 0xe20cb181
0,        209,        209,        1,   149760, 0xdf58fbd2
0,        210,        210,        1,   149760, 0xe047e805
0,        211,        211,        1,   149760, 0xe6dd0520
0,        212,        212,        1,   149760, 0xa7a1a7dd
0,        213,        213,        1,   149760, 0x6bd6d799
0,        214,        214,        1,   149760, 0x9fcbda54
0,        215,        215,        1,   149760, 0xe9b8bf5a
0,        216,        216,        1,   149760, 0x818d2b8d
0,        217,        217,        1,   149760, 0x021c5b55
0,        218,        218,        1,   149760, 0x0da93d94
0,        219,        219,        1,   149760, 0x7d66b00d
0,        220,        220,        1,   149760, 0xf84ab99e
0,        221,        221,        1,   149760, 0xbc866ed2
0,        222,        222,        1,   149760, 0x8075f6fa
0,        223,        223,        1,   149760, 0x64540cad
0,        224,        224,        1,   149760, 0xf3e28d9a
0,        225,        225,        1,   149760, 0xb88fef8b
0,        226,        226,        1,   149760, 0x1c782c83
0,        227,        227,        1,   149760, 0xb89e4047
0,        228,        228,        1,   149760, 0x593815a7
0,        229,        229,        1,   149760, 0xa41a68d1
0,        230,        230,        1,   149760, 0x7fdc56e5
0,        231,        231,        1,   149760, 0xea8a0533
0,        232,        232,        1,   149760, 0xc74709cc
0,        233,        233,        1,   149760, 0xecca373c
0,        234,        234,        1,   149760, 0x1dae228f
0,        235,        235,        1,   149760, 0xbb900da8
0,        236,        236,        1,   149760, 0xf71e4935
0,        237,        237,        1,   149760, 0x8587d747
0,        238,        238,        1,   149760, 0x5382afdd
0,        239,        239,        1,   149760, 0x4075dea6
0,        240,        240,        1,   149760, 0x1ccde8f2
0,        241,        241,        1,   149760, 0x8065ed82
0,        242,        242,        1,   149760, 0x0726bb8a
0,        243,        243,        1,   149760, 0xedf2172c
0,        244,        244,        1,   149760, 0x552cce61
0,        245,        245,        1,   149760, 0x32851927
0,        246,        246,        1,   149760, 0x15e8ae45
0,        247,        247,        1,   149760, 0x9265625c
0,        248,        248,        1,   149760, 0x11612465
0,        249,        249,        1,   149760, 0x9f5586fa
0,        250,        250,        1,   149760, 0x77f295a1
0,        251,        251,        1,   149760, 0xb0757b88
0,        252,        252,        1,   149760, 0xa0bd3d9c
0,        253,        253,        1,   149760, 0x12471db6
0,        254,        254,        1,   149760, 0x5c329d6b
0,        255,        255,        1,   149760, 0x62f32654
0,        256,        256,        1,   149760, 0xeafeb1f0
0,        257,        257,        1,   149760, 0x707f6647
0,        258,        258,        1,   149760, 0xe8acda33
0,        259,        259,        1,   149760, 0x1e9dcb1b
0,        260,        260,        1,   149760, 0x984a4a40
0,        261,        261,        1,   149760, 0x066b9585
0,        262,        262,        1,   149760, 0x5e2d2091
0,        263,        263,        1,   149760, 0x6a6a5172
0,        264,        264,        1,   149760, 0xc4c4fe94
0,        265,        265,        1,   149760, 0x6ed2c46b
0,        266,        266,        1,   149760, 0x810f27f8
0,        267,        267,        1,   149760, 0xc27ca970
0,        268,        268,        1,   149760, 0xfd3dae79
0,        269,        269,        1,   149760, 0x9744ce6d
0,        270,        270,        1,   149760, 0x45772f2a
0,        271,        271,        1,   149760, 0x482ed805
0,        272,        272,        1,   149760, 0x9606c429
0,        273,        273,        1,   149760, 0x79a9ca8a
0,        274,        274,        1,   149760, 0xf625806e
0,        275,        275,        1,   149760, 0x0c9eed01
0,        276,        276,        1,   149760, 0xb0007687
0,        277,        277,        1,   149760, 0x620a7b35
0,        278,        278,        1,   149760, 0x5d6fa9dc
0,        279,        279,        1,   149760, 0x92c86275
0,        280,        280,        1,   149760, 0xca1886f0
0,        281,        281,        1,   149760, 0x6363a557
0,        282,        282,        1,   149760, 0x32ab19ca
0,        283,        283,        1,   149760, 0xa6113c10
0,        284,        284,        1,   149760, 0x257fd46a
0,        285,        285,        1,   149760, 0xb8af4e28
0,        286,        286,        1,   149760, 0x9716d086
0,        287,        287,        1,   149760, 0x0cc14c4d
0,        288,        288,        1,   149760, 0xd194f150
0,        289,        289,        1,   149760, 0xb7cd7cf8
0,        290,        290,        1,   149760, 0xae1bb1a3
0,        291,        291,        1,   149760, 0xb4cc355f
0,        292,        292,        1,   149760, 0x617c1ecb
0,        293,        293,        1,   149760, 0xf2d1f288
0,        294,        294,        1,   149760, 0x109bcb52
0,        295,        295,        1,   149760, 0xe61a97dd
0,        296,        296,        1,   149760, 0xc629ac10
0,        297,        297,        1,   149760, 0xb91acded
0,        298,        298,        1,   149760, 0x54ccb321
0,        299,        299,        1,   149760, 0x1ad3c115
